<svg width="444" height="500" viewBox="0 0 444 500" fill="none" xmlns="http://www.w3.org/2000/svg">
<path d="M254.432 496.986C244.061 498.981 233.425 500 222.523 500C212.418 500 202.535 499.114 192.918 497.385C202.535 498.626 212.285 499.291 222.213 499.291C233.159 499.291 243.929 498.493 254.432 496.986Z" fill="#CCE4FF"/>
<path d="M270.785 38.8229H178.337C168.321 38.8229 160.211 30.7126 160.211 20.6967V18.1262C160.211 8.11027 168.321 0 178.337 0H270.785C280.801 0 288.912 8.11027 288.912 18.1262V20.6967C288.867 30.7126 280.801 38.8229 270.785 38.8229Z" fill="#19426E"/>
<path d="M254.432 55.0877C243.929 53.5809 233.159 52.7832 222.213 52.7832C212.285 52.7832 202.535 53.448 192.918 54.6889C202.535 52.9605 212.418 52.0741 222.523 52.0741C233.425 52.0741 244.061 53.0934 254.432 55.0877Z" fill="#CCE4FF"/>
<path d="M192.918 54.689C116.601 68.1618 56.4613 134.108 44.4953 237.236C44.4953 237.281 44.4953 237.369 44.451 237.414C44.451 237.458 44.451 237.458 44.451 237.502C43.9635 240.294 43.5646 243.131 43.2101 246.011C43.1657 246.056 43.1657 246.056 43.2101 246.1C42.8112 248.936 42.501 251.861 42.2351 254.786C39.4873 263.34 31.51 269.5 22.0702 269.5C10.3258 269.5 0.797363 260.016 0.797363 248.272C0.797363 247.784 0.797364 247.341 0.841683 246.853C0.974638 245.923 1.10759 244.948 1.24054 244.017C1.24054 243.928 1.24055 243.884 1.28486 243.84C15.5111 145.32 94.0432 67.63 192.918 54.689Z" fill="#19426E"/>
<path d="M443.361 245.701C443.405 246.41 443.45 247.119 443.45 247.828C443.45 259.307 434.098 268.658 422.62 268.658C413.313 268.658 405.424 262.498 402.765 254.077C402.765 254.033 402.765 254.033 402.765 254.033C402.544 251.374 402.233 248.715 401.923 246.144V245.967C401.524 242.82 401.037 239.674 400.505 236.66C388.45 134.949 329.551 69.5356 254.565 55.1321C352.685 69.314 430.11 147.314 443.45 245.701H443.361Z" fill="#19426E"/>
<path d="M443.538 305.62C430.464 404.361 352.907 482.716 254.565 496.986C329.507 482.539 388.406 417.169 400.461 315.458C401.037 312.312 401.524 309.165 401.923 305.886C401.923 305.886 401.923 305.886 401.923 305.841C402.278 302.916 402.632 299.947 402.854 296.933C402.854 296.889 402.854 296.889 402.854 296.889C405.602 288.601 413.402 282.618 422.62 282.618C434.143 282.618 443.494 291.97 443.494 303.492C443.494 304.201 443.45 304.911 443.405 305.62H443.538Z" fill="#19426E"/>
<path d="M400.461 315.458C388.406 417.169 329.507 482.538 254.565 496.986H254.432C243.928 498.493 233.159 499.291 222.212 499.291C212.285 499.291 202.535 498.626 192.918 497.385C116.602 483.912 56.4174 417.878 44.4514 314.616C60.1844 408.217 133.93 456.568 222.523 456.568C310.849 456.568 384.462 408.527 400.461 315.458Z" fill="#34C8F0"/>
<path d="M400.505 236.66C384.506 143.591 310.894 95.506 222.523 95.506C202.358 95.506 182.946 97.9878 164.865 102.996C160.566 104.148 156.355 105.478 152.234 106.94C133 113.632 115.494 123.338 100.337 136.013C96.5256 139.16 92.8915 142.528 89.4347 146.029C85.7119 149.752 82.2108 153.652 78.8869 157.818C75.9619 161.452 73.1698 165.307 70.5107 169.252C69.1369 171.379 67.763 173.595 66.4334 175.811C61.1596 184.675 56.6391 194.247 52.9607 204.529C52.03 207.1 51.1436 209.714 50.3459 212.374C47.9084 220.262 45.9584 228.55 44.4958 237.236C56.4618 134.107 116.602 68.1616 192.918 54.6888C202.535 53.4479 212.285 52.7831 222.213 52.7831C233.159 52.7831 243.929 53.5808 254.432 55.0876C254.476 55.0876 254.521 55.0876 254.565 55.132C329.552 69.5354 388.451 134.949 400.505 236.66Z" fill="#34C8F0"/>
<path d="M192.918 497.385C90.6754 484.001 10.1932 401.392 0.0886388 298.085C0.0443204 297.332 0 296.623 0 295.87C0 284.036 9.57277 274.464 21.4058 274.464C30.8899 274.464 38.9115 280.668 41.7036 289.222V289.266C41.8809 292.723 42.1468 296.091 42.457 299.415C42.9445 304.6 43.6093 309.608 44.4513 314.528C44.4513 314.572 44.4513 314.616 44.4513 314.616C56.4173 417.878 116.602 483.912 192.918 497.385Z" fill="#19426E"/>
<path d="M222.301 140.888C218.933 140.888 216.185 138.14 216.185 134.772V113.721C216.185 110.353 218.933 107.605 222.301 107.605C225.669 107.605 228.417 110.353 228.417 113.721V134.772C228.373 138.14 225.669 140.888 222.301 140.888Z" fill="#34C8F0"/>
<path d="M288.956 158.748C286.031 157.064 285.056 153.342 286.74 150.417L297.288 132.202C298.972 129.277 302.694 128.302 305.619 129.986C308.544 131.67 309.519 135.393 307.835 138.318L297.288 156.533C295.603 159.413 291.881 160.433 288.956 158.748Z" fill="#34C8F0"/>
<path d="M337.75 207.587C336.066 204.662 337.086 200.94 339.966 199.255L358.181 188.752C361.106 187.068 364.829 188.087 366.513 190.968C368.197 193.893 367.178 197.616 364.297 199.3L346.082 209.803C343.202 211.487 339.434 210.512 337.75 207.587Z" fill="#34C8F0"/>
<path d="M355.611 274.287C355.611 270.918 358.358 268.215 361.727 268.215H382.778C386.146 268.215 388.849 270.963 388.849 274.331C388.849 277.699 386.102 280.402 382.733 280.402H361.682C358.314 280.358 355.611 277.655 355.611 274.287Z" fill="#34C8F0"/>
<path d="M337.706 340.941C339.39 338.016 343.113 337.041 346.038 338.725L364.253 349.273C367.178 350.957 368.153 354.68 366.469 357.605C364.785 360.53 361.062 361.505 358.137 359.821L339.922 349.273C336.997 347.589 336.022 343.866 337.706 340.941Z" fill="#34C8F0"/>
<path d="M288.823 389.736C291.748 388.052 295.47 389.071 297.155 391.996L307.658 410.255C309.342 413.18 308.323 416.903 305.398 418.587C302.473 420.271 298.75 419.252 297.066 416.327L286.607 398.023C284.923 395.143 285.898 391.42 288.823 389.736Z" fill="#34C8F0"/>
<path d="M222.124 407.508C225.492 407.508 228.195 410.255 228.195 413.624L228.151 434.675C228.151 438.043 225.403 440.746 222.035 440.746C218.667 440.746 215.963 437.999 215.963 434.63L216.008 413.579C216.008 410.211 218.755 407.508 222.124 407.508Z" fill="#34C8F0"/>
<path d="M155.469 389.559C158.394 391.243 159.369 394.965 157.685 397.89L147.137 416.105C145.453 419.03 141.73 420.005 138.805 418.321C135.88 416.637 134.905 412.914 136.589 409.989L147.137 391.774C148.821 388.849 152.544 387.874 155.469 389.559Z" fill="#34C8F0"/>
<path d="M106.719 340.675C108.403 343.6 107.384 347.323 104.459 349.007L86.1998 359.511C83.2748 361.195 79.552 360.175 77.8679 357.25C76.1838 354.325 77.2032 350.603 80.1282 348.919L98.3874 338.415C101.312 336.731 105.035 337.75 106.719 340.675Z" fill="#34C8F0"/>
<path d="M88.9473 273.932C88.9473 277.3 86.1995 280.004 82.8313 280.004L61.7801 279.959C58.4119 279.959 55.7085 277.212 55.7085 273.843C55.7085 270.475 58.4562 267.772 61.8244 267.772L82.8757 267.816C86.2439 267.86 88.9916 270.564 88.9473 273.932Z" fill="#34C8F0"/>
<path d="M106.985 207.277C105.301 210.202 101.578 211.177 98.6529 209.493L80.438 198.945C77.513 197.261 76.538 193.538 78.2221 190.613C79.9062 187.688 83.6289 186.713 86.554 188.397L104.769 198.945C107.65 200.674 108.669 204.396 106.985 207.277Z" fill="#34C8F0"/>
<path d="M155.912 158.571C152.987 160.255 149.264 159.236 147.58 156.311L137.077 138.052C135.393 135.127 136.412 131.404 139.337 129.72C142.262 128.036 145.985 129.055 147.669 131.98L158.172 150.239C159.812 153.164 158.793 156.887 155.912 158.571Z" fill="#34C8F0"/>
<path d="M222.301 266.442C211.931 266.442 203.555 258.066 203.555 247.695V179.135C203.555 168.764 211.931 160.388 222.301 160.388C232.672 160.388 241.048 168.764 241.048 179.135V247.695C241.048 258.022 232.627 266.442 222.301 266.442Z" fill="#34C8F0"/>
<path d="M231.83 276.059C231.83 268.968 237.591 263.207 244.682 263.207H324.987C332.078 263.207 337.839 268.968 337.839 276.059C337.839 283.15 332.078 288.912 324.987 288.912H244.682C237.591 288.912 231.83 283.15 231.83 276.059Z" fill="#34C8F0"/>
<path d="M222.301 307.171C240.511 307.171 255.274 292.408 255.274 274.198C255.274 255.987 240.511 241.225 222.301 241.225C204.09 241.225 189.328 255.987 189.328 274.198C189.328 292.408 204.09 307.171 222.301 307.171Z" fill="#19426E"/>
<path d="M238.433 274.198C238.433 283.106 231.209 290.374 222.257 290.374C213.349 290.374 206.08 283.15 206.08 274.198C206.08 265.29 213.304 258.022 222.257 258.022C231.209 258.022 238.433 265.246 238.433 274.198Z" fill="#34C8F0"/>
</svg>